<svg xmlns="http://www.w3.org/2000/svg" width="32" height="32" viewBox="0 0 32 32"><g transform="translate(0 -1020.362)"><path fill="none" stroke="#373449" stroke-linecap="round" stroke-linejoin="round" d="m 6.500005,1024.8622 20.010835,0 c 1.108,0 2,0.892 2,2 l 0,15 c 0,1.108 -0.892,2 -2,2 l -2.491301,0 -0.02517,3.5 -3.996505,-3.5 -13.497864,0 c -1.108,0 -2,-0.892 -2,-2 l 0,-15 c 0,-1.108 0.892,-2 2.000005,-2 z"/><path fill="none" stroke="#373449" stroke-linejoin="round" d="M8.4861409 1041.3954l0-5.502 2.0000001 0 0 5.502 0 0M10.496976 1041.3954l0-2.502 2 0 0 2.502 0 0M12.507811 1041.3954l0-7.5414 2 0 0 7.5414 0 0"/><path fill="none" stroke="#373449" stroke-linejoin="round" d="M14.493868 1041.3954l0-5.502 2 0 0 5.502 0 0M16.503363 1041.3954l0-9.5292 2 0-.02344 9.5292M18.493868 1041.3954l0-5.502 2 0 0 5.502 0 0M20.503363 1041.3954l0-2.5177 1.996092 0 0 2.5177M22.507619 1041.3622l0-13.4815 1.98828 0 0 13.4815"/><path fill="none" stroke="#373449" d="m -311.03772,979.15328 a 8.8125,6.46875 0 0 1 -10.90791,0.62703" transform="rotate(-18.637)"/><path fill="none" stroke="#373449" stroke-linejoin="round" d="m 15.994374,1026.8761 2.5,0 0,2.5"/></g></svg>